<svg width="448" height="448" viewBox="0 0 448 448" fill="none" xmlns="http://www.w3.org/2000/svg">
<path d="M375.088 0H72.5359C32.4754 0 0 32.4754 0 72.5358V375.088C0 415.149 32.4754 447.624 72.5359 447.624H375.088C415.149 447.624 447.624 415.149 447.624 375.088V72.5358C447.624 32.4754 415.149 0 375.088 0Z" fill="#000C51"/>
<path d="M234.788 112.544C135.11 112.544 111.295 131.29 111.295 184.851L141.06 185.449C141.658 151.531 154.454 141.41 233.608 141.41C312.762 141.41 327.935 159.558 327.935 220.564V220.617C327.935 283.701 312.762 299.771 232.711 299.771C157.605 299.771 142.714 291.375 141.711 249.959V219.086H110.996V332.158H141.711V315.225C160.404 325.1 189.552 328.638 233.89 328.638C333.567 328.638 359.16 304.541 359.16 223.592V217.59C359.16 136.658 333.567 112.562 234.788 112.562V112.544Z" fill="white"/>
<path d="M235.083 253.866C254.302 253.866 269.881 238.287 269.881 219.068C269.881 199.85 254.302 184.27 235.083 184.27C215.865 184.27 200.285 199.85 200.285 219.068C200.285 238.287 215.865 253.866 235.083 253.866Z" fill="white"/>
</svg>
